<?xml version="1.0" encoding="UTF-8"?>
<svg id="Livello_1" xmlns="http://www.w3.org/2000/svg" viewBox="0 0 279.44 143.24">
  <text transform="translate(58.88 79.36)" style="fill: #1d1f1c; font-family: Oswald-Bold, Oswald; font-size: 60px; font-weight: 700;"><tspan x="0" y="0">Cauld</tspan><tspan x="138.24" y="0" style="letter-spacing: 0em;">r</tspan><tspan x="161.16" y="0">on</tspan></text>
  <path d="M8.69,31.01h33.31c1.65,0,3,1.37,3,3.06v5.48c0,1.69-1.34,3.06-3,3.06H8.69c-1.65,0-3-1.37-3-3.06v-5.48c0-1.69,1.34-3.06,3-3.06Z" style="fill: none; stroke: #1d1e1b; stroke-miterlimit: 10; stroke-width: 7px;"/>
  <ellipse cx="37.44" cy="7.91" rx="5.3" ry="5.41" style="fill: none; stroke: #1d1e1b; stroke-miterlimit: 10; stroke-width: 5px;"/>
  <ellipse cx="14.59" cy="13.18" rx="2.29" ry="2.34" style="fill: none; stroke: #1d1e1b; stroke-miterlimit: 10; stroke-width: 3px;"/>
  <ellipse cx="27.78" cy="20.97" rx="2.5" ry="2.55" style="fill: #1d1f1c; stroke: #1d1e1b; stroke-miterlimit: 10;"/>
  <path d="M42.3,42.6c-.1,0-.2.01-.3.01H8.69c-.1,0-.2,0-.3-.01-3.06,3.84-4.9,8.73-4.9,14.07,0,12.32,9.78,22.31,21.85,22.31s21.85-9.99,21.85-22.31c0-5.33-1.84-10.23-4.9-14.07h0Z" style="fill: none; stroke: #1d1e1b; stroke-miterlimit: 10; stroke-width: 7px;"/>
  <text transform="translate(.14 109.99)" style="fill: #1d1d1b; font-family: Oswald-Regular, Oswald; font-size: 21.65px; font-variation-settings: &apos;wght&apos; 400;"><tspan x="0" y="0" style="letter-spacing: -.06em;">Y</tspan><tspan x="9.12" y="0">o</tspan><tspan x="18.32" y="0" style="letter-spacing: 0em;">u</tspan><tspan x="27.63" y="0" style="letter-spacing: 0em;">’</tspan><tspan x="31.48" y="0" style="letter-spacing: 0em;">r</tspan><tspan x="38.37" y="0">e the n</tspan><tspan x="92.33" y="0" style="letter-spacing: 0em;">e</tspan><tspan x="101.28" y="0">xt element </tspan><tspan x="189.49" y="0" style="letter-spacing: -.02em;">f</tspan><tspan x="195.27" y="0">or su</tspan><tspan x="234.01" y="0" style="letter-spacing: 0em;">cc</tspan><tspan x="251.6" y="0">ess</tspan></text>
  <text transform="translate(105.7 139.67)" style="fill: #1d1f1c; font-family: Oswald-Bold, Oswald; font-size: 10px; font-weight: 700;"><tspan x="0" y="0" style="letter-spacing: -.07em;">T</tspan><tspan x="3.75" y="0">ap he</tspan><tspan x="25.75" y="0" style="letter-spacing: 0em;">r</tspan><tspan x="29.57" y="0" style="letter-spacing: 0em;">e to login</tspan></text>
</svg>