<?xml version="1.0" encoding="UTF-8"?>
<svg id="Livello_1" xmlns="http://www.w3.org/2000/svg" viewBox="0 0 276.62 82.47">
  <g>
    <path d="M76.4,80.08c-3.68,0-6.59-.67-8.73-2.01-2.14-1.34-3.65-3.22-4.53-5.64-.88-2.42-1.32-5.27-1.32-8.55v-17.52c0-3.36.44-6.25,1.32-8.67.88-2.42,2.39-4.29,4.53-5.61,2.14-1.32,5.05-1.98,8.73-1.98s6.41.59,8.43,1.77c2.02,1.18,3.45,2.83,4.29,4.95.84,2.12,1.26,4.56,1.26,7.32v4.2h-10.5v-4.86c0-.96-.05-1.88-.15-2.76-.1-.88-.39-1.61-.87-2.19-.48-.58-1.3-.87-2.46-.87s-1.95.3-2.49.9c-.54.6-.88,1.35-1.02,2.25-.14.9-.21,1.85-.21,2.85v22.86c0,1.08.09,2.07.27,2.97.18.9.54,1.62,1.08,2.16s1.33.81,2.37.81c1.12,0,1.92-.29,2.4-.87.48-.58.78-1.33.9-2.25.12-.92.18-1.86.18-2.82v-5.1h10.5v4.2c0,2.76-.41,5.23-1.23,7.41-.82,2.18-2.24,3.9-4.26,5.16-2.02,1.26-4.85,1.89-8.49,1.89Z" style="fill: #1d1f1c;"/>
    <path d="M101.9,79.96c-1.76,0-3.24-.42-4.44-1.26-1.2-.84-2.1-1.91-2.7-3.21-.6-1.3-.9-2.63-.9-3.99,0-2.16.43-3.98,1.29-5.46.86-1.48,1.99-2.72,3.39-3.72,1.4-1,2.94-1.85,4.62-2.55,1.68-.7,3.34-1.33,4.98-1.89v-3.48c0-.6-.06-1.13-.18-1.59-.12-.46-.32-.82-.6-1.08-.28-.26-.7-.39-1.26-.39s-.99.12-1.29.36c-.3.24-.51.57-.63.99s-.2.89-.24,1.41l-.24,2.52-9.12-.36c.2-4.16,1.31-7.23,3.33-9.21,2.02-1.98,5.05-2.97,9.09-2.97,3.52,0,6.15.97,7.89,2.91,1.74,1.94,2.61,4.45,2.61,7.53v16.2c0,1.44.03,2.7.09,3.78s.14,2.02.24,2.82c.1.8.19,1.48.27,2.04h-8.76c-.12-.92-.26-1.92-.42-3-.16-1.08-.28-1.72-.36-1.92-.4,1.44-1.15,2.72-2.25,3.84-1.1,1.12-2.57,1.68-4.41,1.68ZM105.38,73.36c.4,0,.77-.08,1.11-.24.34-.16.65-.38.93-.66.28-.28.52-.56.72-.84v-9.48c-.8.48-1.54.97-2.22,1.47-.68.5-1.26,1.05-1.74,1.65s-.85,1.25-1.11,1.95c-.26.7-.39,1.49-.39,2.37,0,1.16.24,2.08.72,2.76.48.68,1.14,1.02,1.98,1.02Z" style="fill: #1d1f1c;"/>
    <path d="M129.44,79.96c-1.4,0-2.59-.35-3.57-1.05-.98-.7-1.71-1.67-2.19-2.91-.48-1.24-.72-2.62-.72-4.14v-27.18h9.78v26.04c0,.84.15,1.49.45,1.95.3.46.83.69,1.59.69.44,0,.9-.11,1.38-.33.48-.22.98-.47,1.5-.75v-27.6h9.72v34.68h-9.72v-3.18c-1.24,1.16-2.55,2.08-3.93,2.76-1.38.68-2.81,1.02-4.29,1.02Z" style="fill: #1d1f1c;"/>
    <path d="M153.98,79.36V30.76h9.72v48.6h-9.72Z" style="fill: #1d1f1c;"/>
    <path d="M177.5,79.96c-2.56,0-4.54-.9-5.94-2.7-1.4-1.8-2.1-4.46-2.1-7.98v-14.34c0-2.16.3-4.05.9-5.67.6-1.62,1.5-2.89,2.7-3.81,1.2-.92,2.68-1.38,4.44-1.38,1.28,0,2.5.25,3.66.75,1.16.5,2.22,1.17,3.18,2.01v-16.08h9.78v48.6h-9.78v-2.7c-1.08,1.04-2.2,1.85-3.36,2.43-1.16.58-2.32.87-3.48.87ZM181.76,73.72c.32,0,.71-.08,1.17-.24.46-.16.93-.38,1.41-.66v-21.9c-.4-.2-.82-.38-1.26-.54-.44-.16-.86-.24-1.26-.24-.88,0-1.52.37-1.92,1.11-.4.74-.6,1.63-.6,2.67v15.96c0,.72.08,1.37.24,1.95.16.58.42,1.04.78,1.38.36.34.84.51,1.44.51Z" style="fill: #1d1f1c;"/>
    <path d="M200.3,79.36v-34.68h9.78v5.76c1.12-2,2.24-3.53,3.36-4.59,1.12-1.06,2.48-1.59,4.08-1.59.32,0,.6.01.84.03.24.02.46.07.66.15v9.72c-.44-.2-.93-.37-1.47-.51-.54-.14-1.11-.21-1.71-.21-1.12,0-2.16.3-3.12.9s-1.84,1.42-2.64,2.46v22.56h-9.78Z" style="fill: #1d1f1c;"/>
    <path d="M234.5,79.96c-2.48,0-4.63-.42-6.45-1.26-1.82-.84-3.22-2.1-4.2-3.78s-1.47-3.78-1.47-6.3v-13.2c0-2.52.49-4.62,1.47-6.3.98-1.68,2.38-2.94,4.2-3.78s3.97-1.26,6.45-1.26,4.63.42,6.45,1.26c1.82.84,3.23,2.1,4.23,3.78,1,1.68,1.5,3.78,1.5,6.3v13.2c0,2.52-.5,4.62-1.5,6.3s-2.41,2.94-4.23,3.78c-1.82.84-3.97,1.26-6.45,1.26ZM234.56,73.48c.64,0,1.14-.17,1.5-.51.36-.34.61-.82.75-1.44.14-.62.21-1.37.21-2.25v-14.52c0-.88-.07-1.63-.21-2.25-.14-.62-.39-1.1-.75-1.44-.36-.34-.86-.51-1.5-.51s-1.14.17-1.5.51c-.36.34-.62.82-.78,1.44-.16.62-.24,1.37-.24,2.25v14.52c0,.88.08,1.63.24,2.25.16.62.42,1.1.78,1.44.36.34.86.51,1.5.51Z" style="fill: #1d1f1c;"/>
    <path d="M252.08,79.36v-34.68h9.78v3.48c1.28-1.28,2.61-2.28,3.99-3,1.38-.72,2.83-1.08,4.35-1.08,1.44,0,2.63.35,3.57,1.05.94.7,1.65,1.66,2.13,2.88.48,1.22.72,2.61.72,4.17v27.18h-9.72v-25.8c0-.84-.14-1.48-.42-1.92-.28-.44-.8-.66-1.56-.66-.4,0-.87.11-1.41.33-.54.22-1.09.53-1.65.93v27.12h-9.78Z" style="fill: #1d1f1c;"/>
  </g>
  <path d="M8.69,31.01h33.31c1.65,0,3,1.37,3,3.06v5.48c0,1.69-1.34,3.06-3,3.06H8.69c-1.65,0-3-1.37-3-3.06v-5.48c0-1.69,1.34-3.06,3-3.06Z" style="fill: none; stroke: #1d1e1b; stroke-miterlimit: 10; stroke-width: 7px;"/>
  <ellipse cx="37.44" cy="7.91" rx="5.3" ry="5.41" style="fill: none; stroke: #1d1e1b; stroke-miterlimit: 10; stroke-width: 5px;"/>
  <ellipse cx="14.59" cy="13.18" rx="2.29" ry="2.34" style="fill: none; stroke: #1d1e1b; stroke-miterlimit: 10; stroke-width: 3px;"/>
  <ellipse cx="27.78" cy="20.97" rx="2.5" ry="2.55" style="fill: #1d1f1c; stroke: #1d1e1b; stroke-miterlimit: 10;"/>
  <path d="M42.3,42.6c-.1,0-.2.01-.3.01H8.69c-.1,0-.2,0-.3-.01-3.06,3.84-4.9,8.73-4.9,14.07,0,12.32,9.78,22.31,21.85,22.31s21.85-9.99,21.85-22.31c0-5.33-1.84-10.23-4.9-14.07h0Z" style="fill: none; stroke: #1d1e1b; stroke-miterlimit: 10; stroke-width: 7px;"/>
</svg>